<svg width="28" height="28" xmlns="http://www.w3.org/2000/svg" xmlns:xlink="http://www.w3.org/1999/xlink" xml:space="preserve" overflow="hidden"><g transform="translate(-85 -147)"><path d="M99.0015 152.906 99.002 152.906 109.927 163.285 111.251 162.153 99.002 150.5 99.0015 150.5 86.752 162.153 88.0762 163.285 99.0015 152.906Z" fill="#FFFFFF"/><path d="M90.2515 162.827 90.2515 171.5 97.2515 171.5 97.2515 164.208 100.751 164.208 100.751 171.5 107.751 171.5 107.751 162.827 99.0017 154.515 90.2515 162.827Z" fill="#FFFFFF"/><path d="M104.253 152.572 104.253 153.714C104.868 153.719 105.455 153.969 105.885 154.408 106.32 154.841 106.569 155.427 106.579 156.04L107.721 156.04C107.713 154.128 106.165 152.581 104.253 152.572Z" fill="#FFFFFF"/><path d="M110.006 156.041C110.027 152.885 107.486 150.309 104.33 150.288 104.304 150.287 104.278 150.287 104.252 150.288L104.253 151.43C106.793 151.423 108.857 153.477 108.864 156.017 108.864 156.025 108.864 156.033 108.864 156.041Z" fill="#FFFFFF"/><path d="M104.252 147.962 104.252 149.105C108.076 149.122 111.171 152.218 111.189 156.041L112.331 156.042C112.329 151.581 108.713 147.965 104.252 147.962Z" fill="#FFFFFF"/></g></svg>