<svg width="57" height="57" xmlns="http://www.w3.org/2000/svg" xmlns:xlink="http://www.w3.org/1999/xlink" xml:space="preserve" overflow="hidden"><g transform="translate(-660 -178)"><path d="M698 195.812C698 201.059 693.747 205.312 688.5 205.312 683.253 205.312 679 201.059 679 195.812 679 190.566 683.253 186.312 688.5 186.312 693.747 186.312 698 190.566 698 195.812Z" fill="#FFFFFF"/><path d="M707.5 226.688 707.5 217.188C707.5 215.762 706.787 214.337 705.6 213.387 702.987 211.25 699.662 209.825 696.338 208.875 693.963 208.163 691.35 207.688 688.5 207.688 685.888 207.688 683.275 208.163 680.662 208.875 677.338 209.825 674.013 211.488 671.4 213.387 670.213 214.337 669.5 215.762 669.5 217.188L669.5 226.688 707.5 226.688Z" fill="#FFFFFF"/></g></svg>