<svg width="29" height="29" xmlns="http://www.w3.org/2000/svg" xmlns:xlink="http://www.w3.org/1999/xlink" xml:space="preserve" overflow="hidden"><g transform="translate(-621 -346)"><path d="M644.562 352.042 639.427 352.042 639.427 350.531C639.427 349.353 638.491 348.417 637.312 348.417L633.688 348.417C632.509 348.417 631.573 349.353 631.573 350.531L631.573 352.042 626.438 352.042C625.773 352.042 625.229 352.585 625.229 353.25L625.229 354.458 645.771 354.458 645.771 353.25C645.771 352.585 645.227 352.042 644.562 352.042ZM633.385 350.531C633.385 350.35 633.506 350.229 633.688 350.229L637.312 350.229C637.494 350.229 637.615 350.35 637.615 350.531L637.615 352.042 633.385 352.042 633.385 350.531Z" fill="#3B5998"/><path d="M627.042 371.375C627.042 372.04 627.585 372.583 628.25 372.583L642.75 372.583C643.415 372.583 643.958 372.04 643.958 371.375L643.958 355.667 627.042 355.667 627.042 371.375ZM639.427 357.479 641.24 357.479 641.24 370.771 639.427 370.771 639.427 357.479ZM634.594 357.479 636.406 357.479 636.406 370.771 634.594 370.771 634.594 357.479ZM629.76 357.479 631.573 357.479 631.573 370.771 629.76 370.771 629.76 357.479Z" fill="#3B5998"/></g></svg>